<mxfile host="app.diagrams.net" modified="2022-06-09T12:49:55.748Z" agent="5.0 (Linux; Android 11; SM-A025F) AppleWebKit/537.36 (KHTML, like Gecko) Chrome/88.0.4324.181 Mobile Safari/537.36" etag="bAifjl2RofdXbrKSG_OG" version="19.0.3" type="github">
  <diagram id="WCHIFVFS6VV1OSUGvtCh" name="Page-1">
    <mxGraphModel dx="778" dy="1149" grid="0" gridSize="10" guides="1" tooltips="1" connect="1" arrows="1" fold="1" page="0" pageScale="1" pageWidth="827" pageHeight="1169" math="0" shadow="0">
      <root>
        <mxCell id="0" />
        <mxCell id="1" parent="0" />
        <mxCell id="Oq_vpvVHLMfdHyX6lZX5-6" value="" style="rounded=0;whiteSpace=wrap;html=1;hachureGap=4;" vertex="1" parent="1">
          <mxGeometry x="-246" y="-4" width="161" height="388" as="geometry" />
        </mxCell>
        <mxCell id="Oq_vpvVHLMfdHyX6lZX5-7" value="" style="html=1;verticalLabelPosition=bottom;align=center;labelBackgroundColor=#ffffff;verticalAlign=top;strokeWidth=2;strokeColor=#0080F0;shadow=0;dashed=0;shape=mxgraph.ios7.icons.user;hachureGap=4;" vertex="1" parent="1">
          <mxGeometry x="-140" y="216" width="30" height="30" as="geometry" />
        </mxCell>
        <mxCell id="Oq_vpvVHLMfdHyX6lZX5-8" value="" style="html=1;verticalLabelPosition=bottom;align=center;labelBackgroundColor=#ffffff;verticalAlign=top;strokeWidth=2;strokeColor=#0080F0;shadow=0;dashed=0;shape=mxgraph.ios7.icons.user;hachureGap=4;" vertex="1" parent="1">
          <mxGeometry x="15" y="205" width="30" height="30" as="geometry" />
        </mxCell>
        <mxCell id="Oq_vpvVHLMfdHyX6lZX5-9" value="" style="html=1;verticalLabelPosition=bottom;align=center;labelBackgroundColor=#ffffff;verticalAlign=top;strokeWidth=2;strokeColor=#0080F0;shadow=0;dashed=0;shape=mxgraph.ios7.icons.user;hachureGap=4;" vertex="1" parent="1">
          <mxGeometry x="15" y="205" width="30" height="30" as="geometry" />
        </mxCell>
        <mxCell id="Oq_vpvVHLMfdHyX6lZX5-10" value="" style="html=1;verticalLabelPosition=bottom;align=center;labelBackgroundColor=#ffffff;verticalAlign=top;strokeWidth=2;strokeColor=#0080F0;shadow=0;dashed=0;shape=mxgraph.ios7.icons.user;hachureGap=4;" vertex="1" parent="1">
          <mxGeometry x="15" y="205" width="30" height="30" as="geometry" />
        </mxCell>
        <mxCell id="Oq_vpvVHLMfdHyX6lZX5-11" value="" style="html=1;verticalLabelPosition=bottom;align=center;labelBackgroundColor=#ffffff;verticalAlign=top;strokeWidth=2;strokeColor=#0080F0;shadow=0;dashed=0;shape=mxgraph.ios7.icons.user;hachureGap=4;" vertex="1" parent="1">
          <mxGeometry x="15" y="205" width="30" height="30" as="geometry" />
        </mxCell>
        <mxCell id="Oq_vpvVHLMfdHyX6lZX5-12" value="" style="html=1;verticalLabelPosition=bottom;align=center;labelBackgroundColor=#ffffff;verticalAlign=top;strokeWidth=2;strokeColor=#0080F0;shadow=0;dashed=0;shape=mxgraph.ios7.icons.user;hachureGap=4;" vertex="1" parent="1">
          <mxGeometry x="15" y="205" width="30" height="30" as="geometry" />
        </mxCell>
        <mxCell id="Oq_vpvVHLMfdHyX6lZX5-13" value="" style="html=1;verticalLabelPosition=bottom;align=center;labelBackgroundColor=#ffffff;verticalAlign=top;strokeWidth=2;strokeColor=#0080F0;shadow=0;dashed=0;shape=mxgraph.ios7.icons.user;hachureGap=4;" vertex="1" parent="1">
          <mxGeometry x="41" y="233" width="30" height="30" as="geometry" />
        </mxCell>
        <mxCell id="Oq_vpvVHLMfdHyX6lZX5-14" value="" style="html=1;verticalLabelPosition=bottom;align=center;labelBackgroundColor=#ffffff;verticalAlign=top;strokeWidth=2;strokeColor=#0080F0;shadow=0;dashed=0;shape=mxgraph.ios7.icons.user;hachureGap=4;" vertex="1" parent="1">
          <mxGeometry x="564" y="-311" width="30" height="30" as="geometry" />
        </mxCell>
        <mxCell id="Oq_vpvVHLMfdHyX6lZX5-15" value="" style="verticalLabelPosition=bottom;shadow=0;dashed=0;align=center;html=1;verticalAlign=top;strokeWidth=1;shape=mxgraph.mockup.containers.userFemale;strokeColor=#666666;strokeColor2=#008cff;hachureGap=4;" vertex="1" parent="1">
          <mxGeometry x="529" y="-346" width="100" height="100" as="geometry" />
        </mxCell>
        <mxCell id="Oq_vpvVHLMfdHyX6lZX5-16" value="" style="verticalLabelPosition=bottom;shadow=0;dashed=0;align=center;html=1;verticalAlign=top;strokeWidth=1;shape=mxgraph.mockup.containers.userFemale;strokeColor=#666666;strokeColor2=#008cff;hachureGap=4;" vertex="1" parent="1">
          <mxGeometry x="529" y="-346" width="100" height="100" as="geometry" />
        </mxCell>
      </root>
    </mxGraphModel>
  </diagram>
</mxfile>
